# AST/ASF file generated using VICON BodyLanguage
# -----------------------------------------------
:version 1.10
:name VICON
:units
  mass 1.0
  length 0.45
  angle deg
:documentation
   .ast/.asf automatically generated from VICON data using
   VICON BodyBuilder and BodyLanguage model FoxedUp or BRILLIANT.MOD
:root
   order TX TY TZ RX RY RZ
   axis XYZ
   position 0 0 0  
   orientation 0 0 0 
:bonedata
  begin
     id 1 
     name lhipjoint
     direction 0.570549 -0.739093 0.358072 
     length 2.41801 
     axis 0 0 0  XYZ
  end
  begin
     id 2 
     name lfemur
     direction 0.34202 -0.939693 0  
     length 7.44434  
     axis 0 0 20  XYZ
    dof rx ry rz
    limits (-160.0 20.0)
           (-70.0 70.0)
           (-60.0 70.0)
  end
  begin
     id 3 
     name ltibia
     direction 0.34202 -0.939693 0   
     length 7.60047   
     axis 0 0 20   XYZ
    dof rx
    limits (-10.0 170.0)
  end
  begin
     id 4 
     name lfoot
     direction 0.0909041 -0.249757 0.964032   
     length 2.03437   
     axis -90 7.62852e-016 20   XYZ
    dof rx rz
    limits (-45.0 90.0)
           (-70.0 20.0)
  end
  begin
     id 5 
     name ltoes
     direction 1.53547e-011 -4.2174e-011 1   
     length 1.02054   
     axis -90 7.62852e-016 20   XYZ
    dof rx
    limits (-90.0 20.0)
  end
  begin
     id 6 
     name rhipjoint
     direction -0.558096 -0.746754 0.361784   
     length 2.3932  
     axis 0 0 0  XYZ 
  end
  begin
     id 7 
     name rfemur
     direction -0.34202 -0.939693 0   
     length 7.3886   
     axis 0 0 -20   XYZ
    dof rx ry rz
    limits (-160.0 20.0)
           (-70.0 70.0)
           (-70.0 60.0)
  end
  begin
     id 8 
     name rtibia
     direction -0.34202 -0.939693 0   
     length 7.4839   
     axis 0 0 -20   XYZ
    dof rx
    limits (-10.0 170.0)
 end
 begin
     id 9 
     name rfoot
     direction -0.114619 -0.314914 0.942174   
     length 2.25127  
     axis -90 -7.62852e-016 -20   XYZ
    dof rx rz
    limits (-45.0 90.0)
           (-20.0 70.0)
  end
  begin
     id 10 
     name rtoes
     direction -1.53518e-011 -4.21881e-011 1   
     length 1.11821   
     axis -90 -7.62852e-016 -20   XYZ
    dof rx
    limits (-90.0 20.0)
  end
  begin
     id 11 
     name lowerback
     direction -0.00902269 0.996426 -0.0839821   
     length 2.25052   
     axis 0 0 0   XYZ
    dof rx ry rz
    limits (-20.0 45.0)
           (-30.0 30.0)
           (-30.0 30.0)
  end
  begin
     id 12 
     name upperback
     direction 0.0370973 0.999169 -0.0168941   
     length 2.24876   
     axis 0 0 0   XYZ
    dof rx ry rz
    limits (-20.0 45.0)
           (-30.0 30.0)
           (-30.0 30.0)
  end
  begin
     id 13 
     name thorax
     direction 0.0402726 0.998931 0.0227027   
     length 2.26408   
     axis 0 0 0   XYZ
    dof rx ry rz
    limits (-20.0 45.0)
           (-30.0 30.0)
           (-30.0 30.0)
  end
  begin
     id 14 
     name lowerneck
     direction -0.0733697 0.98508 0.155675   
     length 1.58204   
     axis 0 0 0   XYZ
    dof rx ry rz
    limits (-20.0 45.0)
           (-30.0 30.0)
           (-30.0 30.0)
  end
  begin
     id 15 
     name upperneck
     direction 0.0426554 0.993501 -0.105526   
     length 1.61222   
     axis 0 0 0   XYZ
    dof rx ry rz
    limits (-20.0 45.0)
           (-30.0 30.0)
           (-30.0 30.0)
  end
  begin
     id 16
     name head
     direction 0.020792 0.998384 -0.0528868  
     length 1.61527  
     axis 0 0 0   XYZ
    dof rx ry rz
    limits (-20.0 45.0)
           (-30.0 30.0)
           (-30.0 30.0)
  end
  begin
     id 17 
     name lclavicle
     direction 0.967109 0.155462 -0.201325  
     length 3.59357  
     axis 0 0 0   XYZ
    dof ry rz
    limits (-20.0 10.0)
           (0.0 20.0)
  end
  begin
     id 18 
     name lhumerus
     direction 1 -4.48968e-011 2.38195e-027   
     length 5.38154   
     axis 180 -30 -90   XYZ
    dof rx ry rz
    limits (-60.0 90.0)
           (-90.0 90.0)
           (-90.0 90.0)
  end
  begin
     id 19
     name lradius
     direction 1 -4.48961e-011 4.85371e-027   
     length 3.33312   
     axis 180 -30 -90   XYZ
    dof rx
    limits (-10.0 170.0)
  end
  begin
     id 20
     name lwrist
     direction 1 -4.48961e-011 4.76515e-027   
     length 1.66656   
     axis -3.27502e-015 90 90   XYZ
    dof ry
    limits (-180.0 0.0)
 end
  begin
     id 21 
     name lhand
     direction 1 -4.48951e-011 9.53074e-027   
     length 0.710789   
     axis -6.08098e-015 90 90   XYZ
    dof rx rz
    limits (-90.0 90.0)
           (-45.0 45.0)
  end
  begin
     id 22 
     name lfingers
     direction 1 -4.48953e-011 1.90613e-026   
     length 0.573057   
     axis -1.21619e-014 90 90   XYZ
    dof rx
    limits (0.0 90.0)
  end
  begin
     id 23
     name lthumb
     direction 0.707107 -6.34973e-011 0.707107   
     length 0.822798   
     axis -90 45 -9.86923e-015   XYZ
    dof rx rz
    limits (-45.0 45.0)
           (-45.0 45.0)
  end
  begin
     id 24 
     name rclavicle
     direction -0.9585 0.265289 -0.104398   
     length 3.42039  
     axis 0 0 0   XYZ 
    dof ry rz
    limits (-10.0 20.0)
           (-20.0 0.0)
  end
  begin
     id 25 
     name rhumerus
     direction -1 -4.48977e-011 2.21478e-027  
     length 5.16954   
     axis 180 30 90   XYZ
    dof rx ry rz
    limits (-90.0 60.0)
           (-90.0 90.0)
           (-90.0 90.0)
  end
  begin
     id 26 
     name rradius
     direction -1 -4.48967e-011 5.63677e-027   
     length 3.38287   
     axis 180 30 90   XYZ
    dof rx
    limits (-10.0 170.0)
  end
  begin
     id 27 
     name rwrist
     direction -1 -4.48967e-011 4.76501e-027   
     length 1.69144   
     axis -3.27502e-015 -90 -90   XYZ
    dof ry
    limits (-180.0 0.0)
  end
  begin
     id 28
     name rhand
     direction -1 -4.48902e-011 9.53292e-027   
     length 0.817967   
     axis -6.08098e-015 -90 -90   XYZ
    dof rx rz
    limits (-90.0 90.0)
           (-45.0 45.0)
  end
  begin
     id 29
     name rfingers
     direction -1 -4.49012e-011 1.90561e-026   
     length 0.659466   
     axis -1.21619e-014 -90 -90   XYZ
    dof rx
    limits (0.0 90.0)
  end
  begin
     id 30
     name rthumb
     direction -0.707107 -6.34944e-011 0.707107   
     length 0.946865   
     axis -90 -45 9.86923e-015   XYZ
    dof rx rz
    limits (-45.0 45.0)
           (-45.0 45.0)
  end
:hierarchy
  begin
    root lhipjoint rhipjoint lowerback
    lhipjoint lfemur
    lfemur ltibia
    ltibia lfoot
    lfoot ltoes
    rhipjoint rfemur
    rfemur rtibia
    rtibia rfoot
    rfoot rtoes
    lowerback upperback
    upperback thorax
    thorax lowerneck lclavicle rclavicle
    lowerneck upperneck
    upperneck head
    lclavicle lhumerus
    lhumerus lradius
    lradius lwrist
    lwrist lhand lthumb
    lhand lfingers
    rclavicle rhumerus
    rhumerus rradius
    rradius rwrist
    rwrist rhand rthumb
    rhand rfingers
  end

#!OML:ASF F:\twosubjects\two\wednesday\Session 1\Justin1.ASF
:FULLY-SPECIFIED
:DEGREES
924
root 8.91669 17.4517 -14.5646 -1.90528 -3.76363 -0.890431
lowerback 5.51589 0.192315 -1.00944
upperback 1.66264 0.246323 2.73667
thorax -1.39733 0.120763 3.37049
lowerneck -19.9993 -1.41714 -10.0563
upperneck 18.2693 0.843874 1.06905
head 9.01775 -0.20207 2.11818
rclavicle -3.97569e-016 4.05521e-014
rhumerus -26.08 25.7448 -61.7559
rradius 134.089
rwrist -29.3448
rhand -5.6934 38.4903
rfingers 7.12502
rthumb 20.1271 9.51287
lclavicle -3.97569e-016 4.05521e-014
lhumerus -28.7922 -17.7759 68.7623
lradius 130.36
lwrist 9.61134
lhand -5.81976 19.5885
lfingers 7.12502
lthumb 20.0056 48.5787
rfemur -4.41248 0.394533 17.2495
rtibia 23.6378
rfoot -14.1501 -8.41965
rtoes -6.99178
lfemur -4.40008 1.27756 -13.1619
ltibia 24.8162
lfoot -15.9561 3.4376
ltoes -17.8864
925
root 8.92349 17.4506 -14.5534 -1.97571 -3.68314 -0.349847
lowerback 5.4504 0.205932 -1.45074
upperback 1.65373 0.238767 2.61718
thorax -1.37044 0.117223 3.49673
lowerneck -19.7581 -1.32419 -10.2204
upperneck 18.2311 0.963214 1.18996
head 8.95322 -0.14223 2.20096
rclavicle 3.62782e-015 -7.95139e-015
rhumerus -27.1747 24.522 -63.8872
rradius 133.732
rwrist -28.602
rhand -7.0994 37.706
rfingers 7.12502
rthumb 18.7752 8.59206
lclavicle 3.62782e-015 -7.95139e-015
lhumerus -29.2624 -15.4244 71.4855
lradius 130.169
lwrist 8.89236
lhand -6.34984 19.7067
lfingers 7.12502
lthumb 19.496 48.7493
rfemur -4.25588 -0.0109343 16.5706
rtibia 23.4501
rfoot -13.919 -8.20334
rtoes -7.28741
lfemur -4.39109 1.23629 -13.8116
ltibia 24.9651
lfoot -16.1834 3.42874
ltoes -17.0575
926
root 8.92669 17.4486 -14.5439 -2.1162 -3.76754 -0.754247
lowerback 5.54805 0.225473 -1.10617
upperback 1.74793 0.285158 2.821
thorax -1.3308 0.138432 3.51012
lowerneck -19.6761 -1.32107 -10.2298
upperneck 18.1252 0.999088 1.00158
head 8.9028 -0.143243 2.14038
rclavicle -1.47101e-014 -1.74931e-014
rhumerus -27.8653 23.6117 -65.5983
rradius 133.443
rwrist -27.738
rhand -8.02502 38.3407
rfingers 7.12502
rthumb 17.8848 9.14303
lclavicle -1.47101e-014 -1.74931e-014
lhumerus -29.5106 -13.2573 73.9727
lradius 129.936
lwrist 8.55408
lhand -6.77064 19.6311
lfingers 7.12502
lthumb 19.0914 48.7141
rfemur -3.98167 -0.101964 17.0248
rtibia 23.278
rfoot -13.8023 -8.21617
rtoes -7.92587
lfemur -4.18468 1.3144 -13.3534
ltibia 25.0113
lfoot -16.381 3.36842
ltoes -16.5403
927
root 8.9235 17.4506 -14.5447 -2.12756 -3.98148 -1.53096
lowerback 5.67972 0.301952 -0.483876
upperback 1.77728 0.426855 3.14264
thorax -1.38202 0.208952 3.48222
lowerneck -19.6338 -1.40424 -10.1057
upperneck 17.9952 0.914306 0.660795
head 8.86029 -0.207603 1.9901
rclavicle -3.03147e-015 -3.18055e-014
rhumerus -28.519 22.7783 -66.9368
rradius 133.264
rwrist -27.1775
rhand -8.44163 39.0837
rfingers 7.12502
rthumb 17.4839 9.84997
lclavicle -3.03147e-015 -3.18055e-014
lhumerus -29.7759 -11.3714 76.3672
lradius 129.753
lwrist 8.26907
lhand -7.07249 19.5132
lfingers 7.12502
lthumb 18.8011 48.6246
rfemur -3.87854 0.345519 17.9514
rtibia 23.1611
rfoot -13.8492 -8.37519
rtoes -7.48983
lfemur -4.056 1.50126 -12.4384
ltibia 24.9556
lfoot -16.2629 3.33411
ltoes -16.6553
928
root 8.92585 17.4623 -14.5421 -2.0509 -3.96795 -1.04388
lowerback 5.62475 0.35136 -0.941686
upperback 1.73607 0.464901 2.9655
thorax -1.39818 0.22902 3.55487
lowerneck -19.4949 -1.378 -10.0219
upperneck 17.7938 0.877223 0.776343
head 8.76616 -0.19827 2.00936
rclavicle -5.71506e-015 1.74931e-014
rhumerus -29.2193 22.1283 -68.2078
rradius 133.151
rwrist -26.8522
rhand -8.63511 38.7205
rfingers 7.12502
rthumb 17.2977 9.47024
lclavicle -5.71506e-015 1.74931e-014
lhumerus -30.0799 -9.84569 78.325
lradius 129.757
lwrist 8.2973
lhand -7.43918 19.6923
lfingers 7.12502
lthumb 18.4484 48.8375
rfemur -3.91936 0.316133 17.3579
rtibia 23.03
rfoot -13.8612 -8.17537
rtoes -7.14214
lfemur -4.16845 1.40191 -13.0077
ltibia 24.9627
lfoot -16.1666 3.28973
ltoes -15.9716
929
root 8.93089 17.4702 -14.5381 -2.10346 -3.85156 -0.439167
lowerback 5.66396 0.313332 -1.45874
upperback 1.73933 0.381597 2.73015
thorax -1.41236 0.188029 3.60896
lowerneck -19.495 -1.34374 -10.1812
upperneck 17.7569 0.886652 1.15853
head 8.74772 -0.160975 2.16733
rclavicle 6.70898e-015 -1.27222e-014
rhumerus -29.6144 21.8767 -69.1653
rradius 132.918
rwrist -26.4594
rhand -8.7608 38.536
rfingers 7.12502
rthumb 17.1767 9.27517
lclavicle 6.70898e-015 -1.27222e-014
lhumerus -30.4491 -8.58006 79.9858
lradius 129.832
lwrist 8.44477
lhand -7.65081 19.975
lfingers 7.12502
lthumb 18.2448 49.1394
rfemur -3.83932 0.0405527 16.6193
rtibia 22.9657
rfoot -13.848 -7.99687
rtoes -7.33224
lfemur -4.15958 1.20769 -13.7259
ltibia 24.9522
lfoot -16.1412 3.29705
ltoes -15.998
